<?xml version="1.0" standalone="no"?>
<!DOCTYPE svg PUBLIC "-//W3C//DTD SVG 20010904//EN"
 "http://www.w3.org/TR/2001/REC-SVG-20010904/DTD/svg10.dtd">
<svg version="1.0" xmlns="http://www.w3.org/2000/svg"
 width="228.000000pt" height="60.000000pt" viewBox="0 0 228.000000 60.000000"
 preserveAspectRatio="xMidYMid meet">

<g transform="translate(0.000000,60.000000) scale(0.100000,-0.100000)"
fill="#000000" stroke="none">
<path d="M124 511 c-86 -53 -85 -154 2 -212 39 -26 44 -24 44 14 0 21 -8 41
-20 52 -11 10 -20 29 -20 42 0 13 9 31 20 40 12 11 20 30 20 50 0 38 -4 40
-46 14z"/>
<path d="M200 500 c0 -22 5 -30 18 -30 9 0 26 -3 38 -6 15 -4 23 1 32 21 11
23 10 26 -14 35 -14 6 -36 10 -50 10 -20 0 -24 -5 -24 -30z"/>
<path d="M865 514 c-45 -23 -66 -45 -86 -89 -65 -146 -4 -327 119 -351 30 -6
32 -5 32 22 0 23 -7 32 -31 43 -93 41 -92 282 1 321 24 10 30 19 30 41 0 34
-18 38 -65 13z"/>
<path d="M950 503 c0 -22 8 -31 33 -43 46 -21 70 -77 70 -159 0 -84 -21 -135
-68 -162 -24 -15 -35 -28 -35 -45 0 -30 26 -32 80 -4 114 58 137 292 37 388
-31 30 -74 52 -103 52 -9 0 -14 -10 -14 -27z"/>
<path d="M1190 300 l0 -230 35 0 35 0 0 230 0 230 -35 0 -35 0 0 -230z"/>
<path d="M1290 502 c0 -27 3 -30 46 -36 60 -8 108 -38 125 -78 18 -44 15 -147
-6 -192 -20 -43 -51 -61 -118 -71 -41 -6 -47 -10 -47 -31 0 -22 4 -24 53 -24
58 0 121 25 154 61 53 58 70 196 34 276 -23 50 -88 100 -140 108 -110 18 -101
19 -101 -13z"/>
<path d="M2147 524 c-4 -4 -7 -108 -7 -231 l0 -223 40 0 40 0 -2 228 -3 227
-30 3 c-17 2 -34 0 -38 -4z"/>
<path d="M410 308 c-40 -117 -75 -219 -78 -225 -3 -9 8 -13 34 -13 l39 0 54
158 c29 86 57 161 61 165 4 5 31 -61 59 -145 29 -85 56 -160 60 -167 5 -7 22
-11 42 -9 l35 3 -77 220 -76 220 -40 3 -39 3 -74 -213z"/>
<path d="M1790 308 c-40 -117 -75 -219 -78 -225 -3 -9 8 -13 34 -13 l39 0 54
158 c29 86 57 161 61 165 4 5 31 -61 59 -145 29 -85 56 -160 60 -167 5 -7 22
-11 42 -9 l35 3 -77 220 -76 220 -40 3 -39 3 -74 -213z"/>
<path d="M200 295 c0 -28 6 -42 25 -57 15 -11 25 -30 25 -44 0 -14 -11 -36
-25 -50 -25 -25 -34 -74 -14 -74 25 0 78 42 93 74 31 67 10 124 -62 164 l-42
23 0 -36z"/>
<path d="M477 203 c-4 -3 -7 -15 -7 -25 0 -15 8 -18 56 -18 47 0 55 3 50 16
-3 9 -6 20 -6 25 0 10 -83 13 -93 2z"/>
<path d="M1857 203 c-4 -3 -7 -15 -7 -25 0 -15 8 -18 56 -18 47 0 55 3 50 16
-3 9 -6 20 -6 25 0 10 -83 13 -93 2z"/>
<path d="M67 144 c-4 -4 -7 -17 -7 -30 0 -23 40 -44 86 -44 20 0 24 5 24 29 0
24 -5 29 -32 34 -18 3 -40 8 -49 11 -8 4 -18 3 -22 0z"/>
</g>
</svg>
